<svg width="64" height="64" viewBox="0 0 64 64" fill="none" xmlns="http://www.w3.org/2000/svg">
<rect width="64" height="64" rx="32" fill="#506CF0"/>
<path d="M33.0808 46C37.5259 46 40.4762 44.6077 43.0725 42.3646C43.5052 41.9779 43.8593 41.3978 43.8593 40.663C43.8593 39.4641 42.7972 38.4586 41.5777 38.4586C40.9876 38.4586 40.4762 38.6906 40.1222 39C38.116 40.663 36.1491 41.5912 33.2382 41.5912C27.9669 41.5912 24.1512 37.2983 24.1512 32V31.9227C24.1512 26.6243 28.0063 22.3702 33.2382 22.3702C35.8738 22.3702 37.9193 23.2983 39.8075 24.8066C40.1222 25.0387 40.5943 25.2707 41.263 25.2707C42.6005 25.2707 43.6626 24.2652 43.6626 22.9503C43.6626 22.0994 43.2299 21.442 42.7185 21.0552C40.3189 19.2376 37.5259 18 33.2775 18C24.9379 18 19.0767 24.3039 19.0767 32V32.0773C19.0767 39.8508 25.056 46 33.0808 46Z" fill="white"/>
</svg>
